# xmcd
#
# Track frame offsets:
#	150
#	12380
#	27683
#	38243
#	52395
#	63958
#	78518
#	91950
#	103640
#	116455
#	126313
#	138935
#	153788
#	167423
#	177778
#	189013
#
# Disc length: 2654 seconds
#
# Revision: 1
# Processed by: cddbd v1.5.2PL0 Copyright (c) Steve Scherf et al.
# Submitted via: audiograbber 1.83.01
#
DISCID=cc0a5c10
DTITLE=Tom Astor - Die große Astor Story
DYEAR=1900
DGENRE=
TTITLE0=Hallo, guten Morgen Deutschland
TTITLE1=Du, das mag ich
TTITLE2=Wenn ein zartes Wesen mit Gefühl
TTITLE3=Die fünfziger Jahre sterben nie
TTITLE4=Blue Jeans, Rock'n'Eoll und Elvis
TTITLE5=Susie, Susie
TTITLE6=Denn der Sieger, der heißt Heimweh
TTITLE7=Ein unbekannter Stuntman
TTITLE8=Wer hat ein Herz, daß nie bricht
TTITLE9=Sicht weg, Gas weg
TTITLE10=Junge zieh die Bremse an
TTITLE11=Wir sind wieder schlecht bei Kasse
TTITLE12=Der kleine Trucker
TTITLE13=Die Liebe hat es schwer im dichten Stadtverkehr
TTITLE14=Panamerican Highway
TTITLE15=Adios Amigo
EXTD=CD 1
EXTT0=
EXTT1=
EXTT2=
EXTT3=
EXTT4=
EXTT5=
EXTT6=
EXTT7=
EXTT8=
EXTT9=
EXTT10=
EXTT11=
EXTT12=
EXTT13=
EXTT14=
EXTT15=
PLAYORDER=
